<?xml version="1.0" encoding="UTF-8"?>
<svg id="Ebene_1" xmlns="http://www.w3.org/2000/svg" version="1.1" viewBox="0 0 107 128">
  <!-- Generator: Adobe Illustrator 29.2.1, SVG Export Plug-In . SVG Version: 2.1.0 Build 116)  -->
  <defs>
    <style>
      .st0 {
        fill: #fff;
      }
    </style>
  </defs>
  <circle cx="53.4" cy="64.7" r="53.5"/>
  <path class="st0" d="M41.8,76.7c0,5.8,4.5,9.2,11.7,9.2s12.2-3.1,12.2-8.3-1.9-6.1-7.8-7.6l-10.1-2.3c-10.2-2.4-15-7.4-15-15.7s8.9-17,21.5-17,20.7,6.9,21,17.7h-10.5c-.2-5.7-4.1-9.2-10.8-9.2s-10.8,3-10.8,8.2,2.8,6.4,8.4,7.7l10.1,2.4c9.7,2.3,14.5,6.7,14.5,15.1s-9.4,17.6-23,17.6-22-7.1-22-17.8h10.5Z"/>
</svg>